<svg id="Capa_1" enable-background="new 0 0 512 512" height="512" viewBox="0 0 512 512" width="512" xmlns="http://www.w3.org/2000/svg"><g><path d="m275.739 289.428 28.571 11.267 11.268 28.569c1.507 3.82 5.196 6.331 9.303 6.331s7.796-2.511 9.303-6.331l11.268-28.569 28.571-11.267c3.82-1.507 6.332-5.196 6.332-9.303s-2.511-7.796-6.331-9.303l-28.572-11.268-11.268-28.569c-1.507-3.82-5.196-6.331-9.303-6.331s-7.796 2.511-9.303 6.331l-11.268 28.569-28.572 11.268c-3.82 1.507-6.331 5.196-6.331 9.303s2.512 7.796 6.332 9.303zm39.949-12.862c2.577-1.017 4.617-3.057 5.634-5.634l3.559-9.023 3.559 9.023c1.017 2.577 3.057 4.617 5.634 5.634l9.023 3.559-9.022 3.558c-2.578 1.017-4.618 3.057-5.634 5.634l-3.559 9.023-3.559-9.023c-1.017-2.577-3.057-4.617-5.634-5.634l-9.022-3.558z"/><path d="m466.418 434.4c-2.541-25.829-24.387-46.077-50.873-46.077-5.798 0-11.562.993-16.999 2.904-16.136-16.041-38.869-25.435-62.24-25.435-22.94 0-44.246 9.053-59.625 24.165v-58.884c0-18.765-15.267-34.031-34.032-34.031h-27.67v-27.212c0-5.522-4.477-10-10-10h-25.394v-249.83c0-5.522-4.477-10-10-10h-44.872c-5.523 0-10 4.478-10 10v249.83h-25.394c-5.523 0-10 4.478-10 10v27.213h-27.67c-18.765 0-34.032 15.267-34.032 34.031v170.926c0 5.522 4.477 10 10 10h454.255c4.309 0 8.133-2.76 9.49-6.849 2.004-6.035 3.021-12.327 3.021-18.7 0-20.031-10.821-39.91-27.965-52.051zm-331.705-414.4h24.872v239.83h-24.872zm-35.394 259.83h95.66v17.213h-95.66zm-61.702 51.244c0-7.737 6.294-14.031 14.032-14.031h191c7.737 0 14.032 6.294 14.032 14.031v15.947h-219.064zm219.064 160.926h-22.936v-53.17c0-5.522-4.477-10-10-10s-10 4.478-10 10v53.17h-31.064v-53.17c0-5.522-4.477-10-10-10s-10 4.478-10 10v53.17h-31.063v-53.17c0-5.522-4.477-10-10-10s-10 4.478-10 10v53.17h-31.065v-53.17c0-5.522-4.477-10-10-10s-10 4.478-10 10v53.17h-22.936v-124.979h219.063v124.979zm217.311 0h-197.311v-66.569c9.202-23.778 32.946-39.638 59.625-39.638 20.117 0 39.567 8.92 52.03 23.861 3.047 3.654 8.248 4.653 12.436 2.392 4.503-2.436 9.612-3.723 14.774-3.723 17.159 0 31.12 13.96 31.12 31.12l-.002.412c-.048 3.593 1.834 6.936 4.932 8.756 13.631 8.012 22.789 23.219 22.789 37.84-.002 1.864-.133 3.717-.393 5.549z"/></g></svg>