<svg id="Capa_1" enable-background="new 0 0 512 512" height="512" viewBox="0 0 512 512" width="512" xmlns="http://www.w3.org/2000/svg"><g><path d="m192.935 121.882c2.559 0 5.119-.977 7.071-2.929l18.415-18.415c3.905-3.905 3.905-10.237 0-14.143-3.905-3.904-10.237-3.904-14.143 0l-18.415 18.415c-3.905 3.905-3.905 10.237 0 14.143 1.953 1.952 4.513 2.929 7.072 2.929z"/><path d="m196.743 154.746c1.953 1.952 4.512 2.929 7.071 2.929s5.119-.977 7.071-2.929l56.869-56.869c3.905-3.905 3.905-10.237 0-14.143-3.905-3.904-10.237-3.904-14.143 0l-56.869 56.869c-3.904 3.906-3.904 10.238.001 14.143z"/><path d="m435.804 244.503h-32.189v-64.283l9.299-23.577 25.347-9.995c3.821-1.507 6.332-5.196 6.332-9.303s-2.511-7.796-6.331-9.303l-25.347-9.996-9.299-23.577v-58.513c-.001-19.826-16.131-35.956-35.957-35.956h-223.318c-19.826 0-35.956 16.13-35.956 35.956v208.547h-32.189c-5.523 0-10 4.478-10 10v43.704c0 5.522 4.477 10 10 10h6.646v52.565c0 43.162 35.115 78.277 78.277 78.277h44.743v22.813c0 27.647 22.492 50.138 50.138 50.138s50.138-22.491 50.138-50.138v-22.812h44.743c43.162 0 78.277-35.115 78.277-78.277v-52.565h6.646c5.523 0 10-4.478 10-10v-43.704c0-5.524-4.477-10.001-10-10.001zm-96.189 0h-167.23v-180.503h167.229v180.503zm20-93.656 14.701 5.797 9.299 23.577v64.282h-24zm41.922-11.215c-2.577 1.017-4.618 3.057-5.634 5.634l-2.288 5.8-2.288-5.8c-1.017-2.577-3.057-4.617-5.634-5.634l-5.798-2.286 5.798-2.287c2.577-1.017 4.617-3.057 5.634-5.634l2.288-5.8 2.288 5.8c1.017 2.577 3.057 4.617 5.634 5.634l5.798 2.287zm-273.152-103.676c0-8.798 7.158-15.956 15.956-15.956h223.317c8.798 0 15.956 7.158 15.956 15.956v58.514l-9.299 23.577-14.701 5.797v-69.844c0-5.522-4.477-10-10-10h-187.229c-5.523 0-10 4.478-10 10v190.503h-24zm-42.189 228.547h339.607v23.704h-339.607zm199.942 197.359c0 16.618-13.52 30.138-30.138 30.138s-30.138-13.52-30.138-30.138v-22.812h60.275v22.812zm123.02-101.09c0 32.134-26.143 58.277-58.277 58.277h-189.762c-32.134 0-58.277-26.144-58.277-58.277v-52.565h306.316z"/></g></svg>