<svg id="Capa_1" enable-background="new 0 0 510.699 510.699" height="512" viewBox="0 0 510.699 510.699" width="512" xmlns="http://www.w3.org/2000/svg"><g><path d="m483.849 302.851c4.142 0 7.5-3.358 7.5-7.5v-37.572c0-4.142-3.358-7.5-7.5-7.5h-12.5v-34.279c0-57.696-22.468-111.938-63.265-152.735-40.797-40.797-95.039-63.265-152.735-63.265s-111.938 22.468-152.735 63.265-63.265 95.039-63.265 152.735v34.279h-12.5c-4.142 0-7.5 3.358-7.5 7.5v37.572c0 4.142 3.358 7.5 7.5 7.5h17.588v38.411h-17.588c-4.142 0-7.5 3.358-7.5 7.5v37.572c0 4.142 3.358 7.5 7.5 7.5h17.588v43.233c0 7.517 6.115 13.632 13.632 13.632h40.599v52.5c0 4.142 3.358 7.5 7.5 7.5h49.073c4.142 0 7.5-3.358 7.5-7.5v-52.5h150.501c4.142 0 7.5-3.358 7.5-7.5s-3.358-7.5-7.5-7.5h-253.804v-41.865h391.823v41.865h-108.019c-4.142 0-7.5 3.358-7.5 7.5s3.358 7.5 7.5 7.5h4.715v52.5c0 4.142 3.358 7.5 7.5 7.5h49.073c4.142 0 7.5-3.358 7.5-7.5v-52.5h40.599c7.517 0 13.632-6.115 13.632-13.632v-43.233h17.588c4.142 0 7.5-3.358 7.5-7.5v-37.572c0-4.142-3.358-7.5-7.5-7.5h-17.588v-38.411zm-336.108 192.848h-34.073v-45h34.073zm249.29 0h-34.073v-45h34.073zm-99.136-476.152c-7.84 15.316-23.846 25.301-41.293 25.301h-2.505c-17.699 0-33.44-9.791-41.3-25.3 13.722-2.969 27.955-4.548 42.552-4.548 14.595 0 28.826 1.578 42.546 4.547zm-243.546 196.453c0-90.913 60.676-167.908 143.654-192.652 9.832 22.266 31.54 36.5 56.093 36.5h2.505c24.217 0 46.331-14.538 56.086-36.502 82.983 24.742 143.662 101.739 143.662 192.654v34.279h-103.026c.005-.111.017-.221.017-.334 0-12.736 2.973-23.461 9.014-32.339 4.688 2.573 10.562 4.283 16.87 4.283 1.275 0 2.569-.069 3.873-.216 14.359-1.61 33.643-12.339 43.975-54.307.488-1.981.147-4.077-.944-5.801-1.091-1.725-2.838-2.931-4.837-3.339-1.274-.26-31.432-6.263-50.761 3.626-20.045 10.256-22.616 32.999-18.594 44.528-2.33 3.051-4.362 6.285-6.095 9.699-1.733-3.414-3.765-6.647-6.095-9.699 4.023-11.529 1.452-34.272-18.593-44.528-19.328-9.889-49.487-3.887-50.761-3.626-2 .409-3.746 1.614-4.837 3.339s-1.432 3.82-.944 5.801c10.331 41.968 29.616 52.697 43.975 54.307 1.305.146 2.596.216 3.872.216 6.307 0 12.18-1.71 16.869-4.283 6.041 8.878 9.014 19.603 9.014 32.339 0 .113.012.223.017.334h-169.928c.005-.111.017-.221.017-.334 0-12.736 2.973-23.461 9.014-32.339 4.688 2.573 10.562 4.283 16.87 4.283 1.275 0 2.568-.069 3.872-.216 14.359-1.61 33.644-12.339 43.975-54.307.488-1.981.147-4.077-.944-5.801-1.091-1.725-2.838-2.931-4.837-3.339-1.274-.26-31.432-6.263-50.761 3.626-20.045 10.256-22.616 32.999-18.594 44.528-2.33 3.051-4.362 6.285-6.095 9.699-1.733-3.414-3.765-6.647-6.095-9.699 4.023-11.529 1.452-34.272-18.593-44.528-19.328-9.889-49.487-3.887-50.761-3.626-1.999.409-3.746 1.614-4.837 3.339s-1.432 3.82-.944 5.801c10.331 41.968 29.616 52.697 43.975 54.307 1.305.146 2.596.216 3.872.216 6.307 0 12.181-1.71 16.869-4.283 6.041 8.879 9.014 19.603 9.014 32.34 0 .113.012.223.017.334h-99.115zm330.63-26.073c-2.026-3.613-6.599-4.899-10.21-2.873-3.332 1.869-6.43 3.887-9.308 6.044.693-6.158 3.737-13.717 11.9-17.893 9.03-4.62 23.251-4.443 32.934-3.445-6.453 20.761-16.259 33.055-28.02 34.892-3.439.538-6.495.133-9.003-.635 2.673-2.112 5.613-4.073 8.834-5.88 3.613-2.026 4.899-6.597 2.873-10.21zm-68.068-2.873c-3.613-2.026-8.184-.74-10.21 2.873s-.74 8.184 2.873 10.21c3.222 1.807 6.161 3.768 8.834 5.88-2.508.767-5.564 1.172-9.003.635-11.76-1.837-21.567-14.13-28.02-34.892 9.685-.999 23.905-1.174 32.934 3.445 8.163 4.176 11.206 11.735 11.899 17.893-2.877-2.157-5.975-4.175-9.307-6.044zm-116.825 2.873c-2.026-3.613-6.597-4.899-10.21-2.873-3.332 1.869-6.43 3.887-9.308 6.043.693-6.158 3.737-13.717 11.899-17.893 9.03-4.62 23.251-4.443 32.934-3.445-6.453 20.761-16.259 33.055-28.02 34.892-3.439.538-6.495.133-9.003-.635 2.673-2.112 5.613-4.073 8.834-5.88 3.613-2.025 4.9-6.596 2.874-10.209zm-68.068-2.873c-3.613-2.026-8.184-.74-10.21 2.873s-.74 8.184 2.873 10.21c3.222 1.807 6.161 3.768 8.834 5.88-2.508.767-5.564 1.172-9.003.635-11.76-1.837-21.567-14.13-28.02-34.892 9.685-.999 23.905-1.174 32.934 3.445 8.163 4.176 11.206 11.735 11.899 17.893-2.878-2.157-5.975-4.175-9.307-6.044zm-97.669 78.225h442v22.572h-442zm416.912 75.983h-239.162c-4.142 0-7.5 3.358-7.5 7.5s3.358 7.5 7.5 7.5h264.25v22.572h-442v-22.572h147.75c4.142 0 7.5-3.358 7.5-7.5s-3.358-7.5-7.5-7.5h-122.661v-38.411h391.823z"/><path d="m255.349 101.552c4.142 0 7.5-3.358 7.5-7.5v-11.986c0-4.142-3.358-7.5-7.5-7.5s-7.5 3.358-7.5 7.5v11.987c0 4.142 3.358 7.499 7.5 7.499z"/><path d="m303.04 86.165c1.453 2.123 3.804 3.265 6.196 3.265 1.459 0 2.934-.425 4.228-1.311 3.419-2.339 4.294-7.007 1.954-10.425l-6.77-9.892c-2.34-3.418-7.006-4.293-10.425-1.954s-4.294 7.007-1.954 10.425z"/><path d="m197.234 88.118c1.295.886 2.77 1.311 4.229 1.311 2.392 0 4.744-1.142 6.196-3.265l6.77-9.892c2.339-3.418 1.464-8.086-1.954-10.425-3.418-2.34-8.086-1.464-10.425 1.954l-6.77 9.892c-2.339 3.419-1.464 8.086 1.954 10.425z"/></g></svg>